<?xml version="1.0" standalone="no"?>
<!DOCTYPE svg PUBLIC "-//W3C//DTD SVG 20010904//EN"
 "http://www.w3.org/TR/2001/REC-SVG-20010904/DTD/svg10.dtd">
<svg version="1.0" xmlns="http://www.w3.org/2000/svg"
 width="503.000000pt" height="496.000000pt" viewBox="0 0 503.000000 496.000000"
 preserveAspectRatio="xMidYMid meet">

<g transform="translate(0.000000,496.000000) scale(0.100000,-0.100000)"
fill="#000000" stroke="none">
<path d="M1920 3931 c-25 -10 -128 -57 -230 -105 -102 -49 -227 -108 -279
-132 l-94 -44 -441 0 c-479 0 -488 -1 -494 -54 -4 -35 45 -84 139 -139 l66
-38 23 -127 c64 -358 101 -552 116 -597 20 -64 68 -160 103 -205 40 -51 66
-94 63 -102 -1 -5 5 -8 15 -8 9 0 13 -3 10 -7 -4 -3 4 -15 17 -27 43 -39 76
-66 81 -66 2 0 30 -16 62 -35 87 -52 166 -75 320 -90 193 -18 382 -11 593 25
120 20 251 102 382 237 82 85 103 100 167 114 46 10 52 8 93 -17 24 -15 86
-69 140 -119 186 -179 271 -217 543 -243 275 -27 615 8 694 71 9 7 38 23 65
37 69 35 234 202 284 286 68 115 93 211 176 684 l32 185 33 20 c111 67 167
157 125 199 -14 14 -72 16 -495 16 l-479 0 -68 34 c-112 56 -534 248 -566 257
-70 20 -157 -41 -171 -119 -8 -48 16 -114 53 -142 l25 -20 -487 0 -488 0 31
26 c37 30 56 88 47 138 -9 48 -59 103 -104 116 -47 13 -48 13 -102 -9z m-280
-555 l745 -5 3 -23 c4 -35 -154 -624 -184 -685 -65 -134 -201 -231 -354 -252
-89 -13 -516 5 -580 25 -91 27 -151 63 -217 129 -102 103 -123 157 -183 487
-27 152 -50 285 -50 295 0 28 17 41 48 37 15 -2 362 -6 772 -8z m2684 -2 c3
-9 6 -28 6 -42 0 -36 -87 -517 -101 -562 -35 -106 -122 -218 -220 -281 -100
-64 -144 -71 -450 -77 -239 -4 -284 -2 -335 13 -125 36 -234 126 -292 241 -27
55 -201 669 -191 678 7 6 802 27 1183 31 197 2 361 7 364 10 11 10 30 5 36
-11z"/>
<path d="M1502 3306 c-67 -22 -113 -46 -107 -56 3 -6 0 -8 -7 -5 -7 3 -24 -4
-38 -15 -14 -11 -20 -19 -15 -18 24 5 56 -16 77 -50 33 -53 32 -156 -1 -183
-13 -11 -18 -19 -12 -19 7 0 7 -8 2 -22 -5 -13 -15 -22 -23 -20 -15 2 -46 -25
-47 -43 -4 -36 -104 -12 -122 29 -7 15 -8 6 -4 -29 14 -120 134 -274 265 -338
59 -29 73 -32 161 -32 89 0 101 2 163 34 46 23 78 47 101 79 19 25 35 48 35
53 0 4 14 30 30 57 46 73 72 188 54 236 -5 12 -10 13 -25 5 -11 -5 -24 -7 -29
-4 -5 3 -17 2 -27 -3 -22 -13 -58 10 -71 46 -6 15 -20 65 -32 111 -22 89 -20
127 8 116 43 -17 45 -17 20 4 -15 12 -53 33 -84 48 -70 32 -204 41 -272 19z"/>
<path d="M1298 2873 c7 -3 16 -2 19 1 4 3 -2 6 -13 5 -11 0 -14 -3 -6 -6z"/>
<path d="M3361 3289 c-14 -5 -40 -19 -58 -30 -31 -19 -32 -22 -18 -43 45 -68
22 -199 -46 -267 -36 -36 -45 -40 -80 -37 -38 3 -39 3 -39 -29 0 -44 34 -128
76 -185 19 -27 34 -52 34 -57 0 -21 99 -112 145 -132 77 -35 192 -33 265 4 56
29 173 131 204 179 17 26 17 28 -1 52 -11 13 -34 37 -51 51 -18 15 -32 32 -32
39 0 7 -11 19 -25 26 -14 7 -23 15 -20 18 2 3 -24 34 -58 69 -34 35 -68 75
-75 89 -7 13 -19 24 -27 24 -8 0 -15 5 -15 11 0 5 -4 7 -10 4 -5 -3 -10 3 -10
14 0 12 -3 21 -8 21 -4 0 -15 19 -25 41 -23 53 -84 149 -94 148 -5 0 -19 -5
-32 -10z"/>
<path d="M1216 2082 c-3 -5 1 -9 9 -9 8 0 12 4 9 9 -3 4 -7 8 -9 8 -2 0 -6 -4
-9 -8z"/>
<path d="M2083 1829 c-93 -12 -142 -116 -93 -196 22 -36 66 -63 105 -63 25 0
45 -15 78 -60 14 -20 17 -21 12 -5 -4 11 -11 54 -17 95 -9 65 -8 80 8 115 10
22 17 43 16 47 -1 3 14 13 32 22 29 13 78 16 316 16 329 0 326 1 366 -88 22
-48 25 -67 21 -122 -3 -36 -9 -76 -12 -90 -5 -19 -3 -18 11 8 9 17 21 32 26
32 5 0 7 4 4 9 -7 11 17 21 52 21 58 0 122 68 122 129 0 37 -27 89 -56 108
-26 17 -64 18 -489 23 -253 3 -479 2 -502 -1z"/>
<path d="M2280 1419 c94 -43 107 -47 216 -58 96 -10 192 2 266 33 29 13 12 14
-147 9 -163 -5 -242 0 -340 22 -13 3 -11 1 5 -6z"/>
<path d="M3121 886 c-25 -6 -46 -17 -49 -24 -2 -7 -12 -12 -23 -12 -10 0 -19
-4 -19 -9 0 -6 20 -3 45 6 25 8 45 19 45 25 0 5 3 7 8 5 4 -2 23 1 42 9 44 16
11 16 -49 0z"/>
<path d="M1978 843 c7 -3 16 -2 19 1 4 3 -2 6 -13 5 -11 0 -14 -3 -6 -6z"/>
<path d="M2017 830 c13 -11 162 -48 258 -64 64 -11 144 -14 275 -12 186 3 202
6 448 63 12 3 22 9 22 14 0 11 -57 12 -64 1 -3 -5 -53 -12 -112 -15 -58 -3
-111 -10 -118 -16 -20 -17 -345 -26 -360 -10 -6 5 -36 9 -67 9 -32 0 -61 5
-64 10 -3 6 -31 10 -61 10 -31 0 -54 4 -54 11 0 6 -22 9 -55 8 -31 -1 -52 -5
-48 -9z m186 -37 c-7 -2 -19 -2 -25 0 -7 3 -2 5 12 5 14 0 19 -2 13 -5z"/>
</g>
</svg>
